<?xml version="1.0" standalone="no"?>
<!DOCTYPE svg PUBLIC "-//W3C//DTD SVG 20010904//EN"
 "http://www.w3.org/TR/2001/REC-SVG-20010904/DTD/svg10.dtd">
<svg version="1.0" xmlns="http://www.w3.org/2000/svg"
 width="500.000000pt" height="500.000000pt" viewBox="0 0 500.000000 500.000000"
 preserveAspectRatio="xMidYMid meet">
<metadata>
Created by potrace 1.14, written by Peter Selinger 2001-2017
</metadata>
<g transform="translate(0.000000,500.000000) scale(0.100000,-0.100000)"
fill="#000000" stroke="none">
<path d="M1290 3710 l0 -150 -155 0 -155 0 0 -305 0 -305 -150 0 -150 0 0
-450 0 -450 150 0 150 0 0 -305 0 -305 305 0 305 0 0 -150 0 -150 905 0 905 0
0 150 0 150 155 0 155 0 0 150 0 150 150 0 150 0 0 305 0 305 150 0 150 0 0
300 0 300 -150 0 -150 0 0 155 0 155 -150 0 -150 0 0 -305 0 -305 -155 0 -155
0 0 605 0 605 -300 0 -300 0 0 -300 0 -300 -150 0 -150 0 0 150 0 150 -155 0
-155 0 0 -305 0 -305 -150 0 -150 0 0 155 0 155 -150 0 -150 0 0 300 0 300
-150 0 -150 0 0 -150z m0 -910 l0 -150 150 0 150 0 0 -150 0 -150 150 0 150 0
0 -150 0 -150 -150 0 -150 0 0 150 0 150 -150 0 -150 0 0 150 0 150 -155 0
-155 0 0 150 0 150 155 0 155 0 0 -150z m1210 0 l0 -150 -155 0 -155 0 0 150
0 150 155 0 155 0 0 -150z m900 -450 l0 -300 -150 0 -150 0 0 -155 0 -155
-150 0 -150 0 0 155 0 155 150 0 150 0 0 300 0 300 150 0 150 0 0 -300z"/>
</g>
</svg>
